<?xml version="1.0" encoding="UTF-8"?>
<svg version="1.1" xmlns="http://www.w3.org/2000/svg" width="530" height="80">
<path d="M0 0 C174.9 0 349.8 0 530 0 C530 26.4 530 52.8 530 80 C355.1 80 180.2 80 0 80 C0 53.6 0 27.2 0 0 Z " fill="#EA7F7F" transform="translate(0,0)"/>
<path d="M0 0 C84.81 0 169.62 0 257 0 C257 26.4 257 52.8 257 80 C172.19 80 87.38 80 0 80 C0 53.6 0 27.2 0 0 Z " fill="#FEFEFE" transform="translate(273,0)"/>
<path d="M0 0 C4.57464974 2.17015678 6.77630419 6.24049351 8.74609375 10.67578125 C11.05237641 17.94159212 10.31631888 24.7401229 6.90625 31.51171875 C4.29680821 35.48573102 1.177813 37.940729 -3.37109375 39.45703125 C-9.44685335 39.91743042 -15.25744914 40.34698687 -20.93359375 37.95703125 C-21.73796875 37.13203125 -22.54234375 36.30703125 -23.37109375 35.45703125 C-24.09232422 34.72226563 -24.09232422 34.72226563 -24.828125 33.97265625 C-28.43732906 29.47855092 -28.8313903 24.94942955 -28.87109375 19.33203125 C-28.87737793 18.65108398 -28.88366211 17.97013672 -28.89013672 17.26855469 C-28.75613507 11.92149844 -27.5238069 7.76311837 -23.8359375 3.8125 C-16.76806728 -1.59234193 -8.6659567 -1.98446125 0 0 Z " fill="#080808" transform="translate(346.37109375,20.54296875)"/>
<path d="M0 0 C3.64188389 2.86192949 5.82918962 6.29917175 6.62182617 10.84057617 C6.76120794 13.02188832 6.75941627 15.15525621 6.69921875 17.33984375 C6.70630859 18.06880859 6.71339844 18.79777344 6.72070312 19.54882812 C6.6566742 25.02083828 5.56620937 29.25080585 1.76171875 33.421875 C-4.98335608 38.67389941 -11.41374568 38.46706361 -19.73828125 37.77734375 C-24.25593303 35.67429896 -26.95870926 32.89522818 -29.73828125 28.77734375 C-31.08898114 24.94135607 -30.99542941 20.92457709 -31.05078125 16.90234375 C-31.07978516 16.20753906 -31.10878906 15.51273438 -31.13867188 14.796875 C-31.20230676 9.59839451 -29.9816357 6.78104503 -26.73828125 2.77734375 C-18.28906291 -5.02193472 -9.96229582 -4.76457626 0 0 Z " fill="#FEFAFA" transform="translate(262.73828125,22.22265625)"/>
<path d="M0 0 C21.60194175 0 21.60194175 0 27 4 C31.44083111 8.55469858 33.28806333 12.46711141 33.3125 18.8125 C33.18164105 25.53537871 32.05441515 29.41730666 27.8125 34.75 C18.93297443 41.85362046 12.09654017 40 0 40 C0 26.8 0 13.6 0 0 Z " fill="#040404" transform="translate(278,20)"/>
<path d="M0 0 C19 0 19 0 26 3 C28.45970225 6.68955337 28.57750613 9.71611123 28 14 C26.625 16.5 26.625 16.5 25 18 C24.34 18 23.68 18 23 18 C23 18.66 23 19.32 23 20 C23.61875 20.103125 24.2375 20.20625 24.875 20.3125 C27 21 27 21 29 24 C29.72022276 28.47208083 29.58211165 31.98669453 27.3125 35.9375 C19.38558618 43.00745016 10.9961036 40 0 40 C0 26.8 0 13.6 0 0 Z " fill="#FEFCFC" transform="translate(159,20)"/>
<path d="M0 0 C19 0 19 0 26 4 C28.6524593 7.3444052 28.42794993 10.8631507 28 15 C24.94736842 20.68421053 24.94736842 20.68421053 21 22 C21.62648437 22.96421875 22.25296875 23.9284375 22.8984375 24.921875 C23.72406631 26.1978468 24.54958116 27.47389235 25.375 28.75 C25.7875 29.38421875 26.2 30.0184375 26.625 30.671875 C28.58941624 33.71355176 30.48420908 36.70190547 32 40 C28.39699031 40.86383634 25.56627257 41.10625169 22 40 C18.68675727 36.17336343 14 30.2483596 14 25 C12.35 25 10.7 25 9 25 C9 29.95 9 34.9 9 40 C6.03 40 3.06 40 0 40 C0 26.8 0 13.6 0 0 Z " fill="#FEFAFA" transform="translate(196,20)"/>
<path d="M0 0 C2.75569447 2.18159145 4.43588747 3.87177494 6 7 C6.53013375 13.23926648 6.68427506 18.67826936 3 24 C-1.0016041 26.66773607 -4.29431148 26.71478813 -9 26 C-11.50160818 24.12379387 -12.61945652 22.76108697 -14 20 C-14.14943856 17.73255726 -14.22144902 15.4596825 -14.25 13.1875 C-14.27578125 11.96417969 -14.3015625 10.74085937 -14.328125 9.48046875 C-13.97873546 5.77444397 -13.23569119 3.93570129 -11 1 C-7.52736727 -0.73631636 -3.78806987 -0.60190402 0 0 Z " fill="#F9F9F9" transform="translate(341,27)"/>
<path d="M0 0 C3.48374998 0.80151494 5.07543221 2.69999485 7.15625 5.49609375 C8.78294472 10.3761779 9.18105867 15.79079315 7.33203125 20.671875 C5.90797775 23.22881865 4.82324961 25.16259395 2.15625 26.49609375 C-2.2568516 27.01578332 -5.70534151 27.34990012 -9.34375 24.62109375 C-12.02002753 20.82970058 -12.12383593 17.7092694 -12.21875 13.18359375 C-12.26773438 11.86746094 -12.31671875 10.55132812 -12.3671875 9.1953125 C-11.84375 5.49609375 -11.84375 5.49609375 -9.6015625 2.5546875 C-6.0705814 -0.08104485 -4.25713555 -0.23414246 0 0 Z " fill="#EA8282" transform="translate(252.84375,26.50390625)"/>
<path d="M0 0 C9.5 0 9.5 0 14 3 C16.97250121 7.59571006 16.50916552 12.72817858 16 18 C14.45765699 21.70162323 12.60997018 24.19501491 9 26 C6.03 26 3.06 26 0 26 C0 17.42 0 8.84 0 0 Z " fill="#F5F5F5" transform="translate(286,27)"/>
<path d="M0 0 C1.60875 -0.04125 3.2175 -0.0825 4.875 -0.125 C5.77992188 -0.14820313 6.68484375 -0.17140625 7.6171875 -0.1953125 C10 0 10 0 12 2 C12.25 5 12.25 5 12 8 C10 10 10 10 7.6171875 10.1953125 C6.71226562 10.17210937 5.80734375 10.14890625 4.875 10.125 C2.461875 10.063125 2.461875 10.063125 0 10 C0 6.7 0 3.4 0 0 Z " fill="#EA8282" transform="translate(167,43)"/>
<path d="M0 0 C6.625 -0.25 6.625 -0.25 10 2 C10.4375 4.9375 10.4375 4.9375 10 8 C8.375 9.875 8.375 9.875 6 11 C2.75 11.1875 2.75 11.1875 0 11 C0 7.37 0 3.74 0 0 Z " fill="#EA8383" transform="translate(205,27)"/>
<path d="M0 0 C1.423125 -0.061875 2.84625 -0.12375 4.3125 -0.1875 C5.51326172 -0.23970703 5.51326172 -0.23970703 6.73828125 -0.29296875 C9 0 9 0 10.80078125 1.3828125 C12 3 12 3 11.875 5.0625 C11 7 11 7 8 9 C5.95703125 9.1953125 5.95703125 9.1953125 3.8125 9.125 C1.9253125 9.063125 1.9253125 9.063125 0 9 C0 6.03 0 3.06 0 0 Z " fill="#EB8686" transform="translate(167,27)"/>
</svg>
